<?xml version="1.0" encoding="utf-8"?>
<!-- Generator: Adobe Illustrator 16.0.0, SVG Export Plug-In . SVG Version: 6.00 Build 0)  -->
<!DOCTYPE svg PUBLIC "-//W3C//DTD SVG 1.1//EN" "http://www.w3.org/Graphics/SVG/1.1/DTD/svg11.dtd">
<svg version="1.1" id="objects" xmlns="http://www.w3.org/2000/svg" xmlns:xlink="http://www.w3.org/1999/xlink" x="0px" y="0px"
	 width="41px" height="40px" viewBox="0 0 41 40" enable-background="new 0 0 41 40" xml:space="preserve">
<ellipse fill="#CC3235" cx="20.5" cy="19.999" rx="20.5" ry="20.001"/>
<g>
	<path fill="#FFFFFF" d="M9.848,28.652c0,0-0.321-6.705,0.225-7.991c0,0,0.418-1.846,2.087-2.255c0,0,7.033-0.814,16.634,0
		c0,0,1.862,0.376,2.118,2.349c0,0,0.773,5.547-0.031,9.367c0,0-0.225,1.974-2.536,2.225c0,0-9.151,0.659-15.83,0
		C12.514,32.348,9.944,32.316,9.848,28.652z"/>
	<g>
		<polygon fill="#FFFFFF" points="15.378,11.091 14.355,7.377 12.785,7.377 14.622,12.994 14.622,16.837 16.061,16.837 
			16.061,12.994 17.823,7.359 16.401,7.359 		"/>
		<path fill="#FFFFFF" d="M25.245,9.76v5.413c-1.112,1.083-1.155,0.258-1.155,0.258V9.797h-1.268l-0.021,5.931
			c0,0.642,0.249,0.883,0.249,0.883c0.979,0.954,2.195-0.532,2.195-0.532v0.72h1.287V9.76H25.245z"/>
		<path fill="#FFFFFF" d="M19.771,9.632c-1.938,0-1.878,1.903-1.878,1.903s-0.017,1.885-0.017,3.638
			c0,1.742,1.895,1.719,1.895,1.719c1.984,0,1.912-1.812,1.912-1.812v-3.677C21.684,9.508,19.771,9.632,19.771,9.632z
			 M20.303,15.002c0,0,0.058,0.664-0.48,0.664c0,0-0.616,0.148-0.616-0.664v-3.565c0,0-0.024-0.541,0.565-0.568
			c0,0,0.516-0.021,0.531,0.582V15.002z"/>
	</g>
	<g>
		<path fill="#CC2F39" d="M15.726,22.942l1.319-0.017v5.778c0,0-0.037,0.907,1.15-0.252v-5.526h1.357v7.174h-1.341v-0.761
			c0,0-2.504,2.192-2.504-0.417C15.708,26.312,15.726,22.942,15.726,22.942z"/>
		<polygon fill="#CC2F39" points="12.505,30.062 12.505,21.856 10.943,21.856 10.943,20.534 15.531,20.534 15.531,21.874 
			13.972,21.874 13.972,30.062 		"/>
		<path fill="#CC2F39" d="M21.989,23.603v-3.06h-1.336v9.537l1.336,0.017v-0.723c2.431,1.954,2.522-0.561,2.522-0.561v-4.415
			C24.346,21.485,21.989,23.603,21.989,23.603z M23.194,28.47c0,0-0.129,0.776-1.224,0.162v-4.306c0,0,1.224-0.87,1.224,0.309
			C23.194,25.81,23.194,28.47,23.194,28.47z"/>
		<path fill="#CC2F39" d="M29.496,26.734v-2.038c0,0-0.105-1.881-1.926-1.881c0,0-1.996-0.051-1.996,1.946c0,1.999,0,3.566,0,3.566
			s0.055,1.801,2.129,1.801c0,0,1.779-0.066,1.779-1.566v-1.006h-1.325v0.731c0,0-0.039,0.667-0.587,0.667
			c0,0-0.698,0.091-0.698-0.771c0-0.86,0-1.448,0-1.448H29.496z M26.887,24.761c0,0-0.015-0.743,0.614-0.743
			c0.63,0,0.685,0.755,0.685,0.755v0.863h-1.313L26.887,24.761z"/>
	</g>
</g>
</svg>
